<svg width="148" height="33" viewBox="0 0 148 33" fill="none" xmlns="http://www.w3.org/2000/svg"><path d="M59.7694 20.8182V5.80908H56.9434V23.3007H65.4921V20.8182H59.7694Z" fill="#1C305C"></path><path d="M67.2129 5.80908V8.36292H71.7628V23.3007H74.5889V8.36292H79.1432V5.80908H67.2129Z" fill="#1C305C"></path><path d="M85.5702 5.80908H82.7441V23.3007H85.5702V5.80908Z" fill="#1C305C"></path><path d="M100.666 15.782C100.19 15.0924 99.5994 14.5693 98.9116 14.2269C98.2679 13.9035 97.4082 13.5658 96.3589 13.2139C95.5212 12.9333 94.8555 12.6813 94.3837 12.4578C93.9472 12.2533 93.5813 11.9727 93.2903 11.616C93.0214 11.2878 92.8935 10.8598 92.8935 10.3082C92.8935 9.60431 93.0963 9.08593 93.5152 8.71023C93.9472 8.32501 94.5468 8.13003 95.2919 8.13003C96.1076 8.13003 96.7601 8.35355 97.2186 8.78632C97.6948 9.23336 97.9769 9.73747 98.0828 10.3129L98.1445 10.6363H101.116L101.059 10.1798C100.896 8.84815 100.3 7.74006 99.2952 6.87927C98.2988 6.02799 96.9541 5.59521 95.2875 5.59521C94.2206 5.59521 93.2727 5.7902 92.4703 6.17542C91.6502 6.57014 91.0153 7.13608 90.57 7.85895C90.1292 8.58182 89.9043 9.42835 89.9043 10.3747C89.9043 11.4686 90.1512 12.3722 90.6318 13.057C91.1035 13.7228 91.6811 14.2269 92.3512 14.5646C92.9861 14.8784 93.8282 15.2161 94.8599 15.568C95.7064 15.8439 96.3853 16.1054 96.8747 16.3432C97.3288 16.562 97.7124 16.8663 98.0166 17.2468C98.3032 17.5987 98.4399 18.0553 98.4399 18.6402C98.4399 19.3203 98.2371 19.8625 97.8226 20.2905C97.4082 20.7185 96.7865 20.9373 95.9753 20.9373C95.3404 20.9373 94.7937 20.8041 94.3573 20.5473C93.9208 20.2905 93.5813 19.9623 93.3476 19.5724C93.114 19.1776 92.9729 18.7734 92.9332 18.3596L92.8979 17.9982H89.9396L89.9748 18.4357C90.0586 19.4059 90.3716 20.2857 90.9051 21.0466C91.4342 21.798 92.1528 22.3973 93.039 22.8253C93.9164 23.2486 94.926 23.4626 96.0414 23.4626C97.1966 23.4626 98.1842 23.2343 98.9822 22.7777C99.789 22.3164 100.402 21.7077 100.799 20.9658C101.195 20.2287 101.398 19.4202 101.398 18.5641C101.403 17.4275 101.156 16.4906 100.666 15.782Z" fill="#1C305C"></path><path d="M115.947 15.7821C115.471 15.0926 114.88 14.5694 114.193 14.227C113.549 13.9036 112.689 13.566 111.64 13.214C110.802 12.9335 110.137 12.6814 109.665 12.4579C109.228 12.2534 108.862 11.9728 108.572 11.6161C108.303 11.288 108.175 10.8599 108.175 10.3083C108.175 9.60443 108.378 9.08605 108.796 8.71035C109.228 8.32513 109.828 8.13015 110.573 8.13015C111.389 8.13015 112.037 8.35367 112.5 8.78644C112.976 9.23348 113.258 9.73759 113.364 10.313L113.426 10.6364H116.397L116.34 10.1799C116.177 8.84826 115.581 7.73542 114.576 6.87463C113.58 6.02335 112.235 5.59058 110.569 5.59058C109.502 5.59058 108.554 5.78556 107.751 6.17078C106.931 6.5655 106.297 7.13144 105.851 7.85431C105.41 8.57719 105.186 9.42371 105.186 10.3701C105.186 11.4639 105.432 12.3675 105.913 13.0523C106.385 13.7182 106.962 14.2223 107.632 14.5599C108.267 14.8738 109.109 15.2115 110.141 15.5634C110.988 15.8392 111.666 16.1008 112.156 16.3386C112.61 16.5573 112.994 16.8617 113.298 17.2422C113.584 17.5941 113.721 18.0506 113.721 18.6356C113.721 19.3157 113.518 19.8578 113.104 20.2858C112.689 20.7139 112.068 20.9326 111.256 20.9326C110.622 20.9326 110.075 20.7995 109.638 20.5427C109.202 20.2858 108.862 19.9577 108.629 19.5677C108.395 19.173 108.254 18.7688 108.214 18.355L108.179 17.9936H105.216L105.252 18.4311C105.335 19.4013 105.648 20.2811 106.182 21.042C106.711 21.7934 107.43 22.3926 108.316 22.8207C109.193 23.2439 110.203 23.4579 111.318 23.4579C112.473 23.4579 113.461 23.2297 114.259 22.7731C115.066 22.3118 115.678 21.7031 116.075 20.9612C116.472 20.224 116.675 19.4155 116.675 18.5595C116.684 17.4276 116.437 16.486 115.947 15.7821Z" fill="#1C305C"></path><path d="M123.844 5.80908H121.018V23.3007H123.844V5.80908Z" fill="#1C305C"></path><path d="M139.376 3.146L138.085 0.359131H137.41L136.149 3.146L127.525 23.2961H130.761L132.829 18.4072H142.696L144.733 23.2961H148L139.376 3.146ZM141.687 16.0198H133.812L137.776 6.59392L141.687 16.0198Z" fill="#1C305C"></path><path d="M44.639 3.146L43.3472 0.359131H42.6727L41.4206 3.146L32.7881 23.3009H36.033L38.0919 18.4072H47.9677L49.9957 23.2961H53.2627L44.639 3.146ZM46.9492 16.0198H39.0751L43.0386 6.59392L46.9492 16.0198Z" fill="#1C305C"></path><path d="M44.8953 31.6137V32.2081H43.0039V28.0564L43.5903 28.0278V31.6137H44.8953Z" fill="#1C305C"></path><path d="M48.3034 31.4044H46.7956L46.5752 32.2081H45.9844L47.1792 28.0706L47.911 28.0278L49.1102 32.2081H48.5239L48.3034 31.4044ZM48.1447 30.8337L47.5539 28.6936L46.9543 30.8337H48.1447Z" fill="#1C305C"></path><path d="M53.3687 28.0516V32.2081H52.8308L51.0805 29.174V32.2081H50.4941V28.0659L51.0452 28.0374L52.7823 31.0858V28.0516H53.3687Z" fill="#1C305C"></path><path d="M54.9121 30.1681V30.0825C54.9121 28.6939 55.6836 28.009 56.5522 28.009C57.2267 28.009 57.7999 28.4941 57.9851 29.1552L57.4251 29.3169C57.3061 28.9221 56.9975 28.594 56.5478 28.594C56.0011 28.594 55.4853 28.9935 55.4853 30.0825V30.1729C55.4853 31.2525 56.0011 31.6614 56.539 31.6614C57.0548 31.6614 57.4648 31.2429 57.4648 30.5962V30.5534H56.4861V29.9969H58.0865V30.4487C58.0865 31.5663 57.3766 32.2464 56.5478 32.2464C55.6881 32.2464 54.9121 31.5616 54.9121 30.1681Z" fill="#1C305C"></path><path d="M59.5898 30.5959L59.5987 28.0754L60.1762 28.0374L60.1674 30.5579C60.1586 31.2189 60.5245 31.6089 61.0095 31.6089C61.5209 31.6089 61.8516 31.2142 61.8516 30.5579L61.8428 28.0421H62.4203L62.4336 30.5912C62.4336 31.6232 61.8251 32.2367 61.0051 32.2367C60.2071 32.2367 59.5898 31.6279 59.5898 30.5959Z" fill="#1C305C"></path><path d="M66.0402 31.4044H64.5324L64.312 32.2081H63.7256L64.9204 28.0706L65.6523 28.0278L66.8515 32.2081H66.2651L66.0402 31.4044ZM65.8815 30.8337L65.2907 28.6936L64.6911 30.8337H65.8815Z" fill="#1C305C"></path><path d="M67.9355 30.1681V30.0825C67.9355 28.6939 68.7071 28.009 69.5756 28.009C70.2502 28.009 70.8233 28.4941 71.0085 29.1552L70.4486 29.3169C70.3295 28.9221 70.0209 28.594 69.5712 28.594C69.0245 28.594 68.5087 28.9935 68.5087 30.0825V30.1729C68.5087 31.2525 69.0245 31.6614 69.5624 31.6614C70.0782 31.6614 70.4883 31.2429 70.4883 30.5962V30.5534H69.5095V29.9969H71.1099V30.4487C71.1099 31.5663 70.4001 32.2464 69.5712 32.2464C68.7115 32.2464 67.9355 31.5616 67.9355 30.1681Z" fill="#1C305C"></path><path d="M73.2485 28.632V29.9112H74.5094V30.5057H73.2485V31.6138H74.9944V32.2083H72.6797V28.0422H74.9944V28.632H73.2485Z" fill="#1C305C"></path><path d="M79.4472 28.632V29.9112H80.708V30.5057H79.4472V31.6138H81.193V32.2083H78.874V28.0422H81.1886V28.632H79.4472Z" fill="#1C305C"></path><path d="M86.3958 28.0659V32.2081H85.8094V29.2548L84.7248 31.4044H84.3809L83.2963 29.2548V32.2081H82.71V28.0706L83.3052 28.0278L84.5529 30.4961L85.8006 28.0278L86.3958 28.0659Z" fill="#1C305C"></path><path d="M90.5885 29.4927C90.5885 30.363 90.011 30.9052 89.3629 30.9147H88.7236V32.2082H88.1328V28.066C88.534 28.0374 88.8823 28.0232 89.2835 28.0137C89.8831 28.0137 90.5885 28.3989 90.5885 29.4927ZM89.2703 30.3392C89.6362 30.3392 90.0022 30.0444 90.0022 29.507C90.0022 28.9125 89.6979 28.6367 89.2438 28.6367C89.0587 28.6367 88.9044 28.6462 88.7192 28.6509V30.3392H89.2703Z" fill="#1C305C"></path><path d="M91.8223 30.1918V30.0586C91.8223 28.689 92.5938 28.0042 93.4227 28.0042C94.2515 28.0042 95.0275 28.689 95.0275 30.0586V30.1918C95.0275 31.5615 94.2471 32.2463 93.4227 32.2463C92.5938 32.2463 91.8223 31.5615 91.8223 30.1918ZM94.4499 30.1918V30.0586C94.4499 28.9933 93.9341 28.5939 93.4227 28.5939C92.9112 28.5939 92.4042 28.9933 92.4042 30.0586V30.1918C92.4042 31.2476 92.9157 31.6566 93.4227 31.6566C93.9297 31.6566 94.4499 31.2476 94.4499 30.1918Z" fill="#1C305C"></path><path d="M100.632 28.0564L99.7416 32.2081H99.2257L98.4057 29.3499L97.5856 32.2081H97.0698L96.1748 28.0564L96.7612 28.0183L97.3961 31.0667L98.1941 28.1515H98.6129L99.4109 31.0667L100.046 28.0183L100.632 28.0564Z" fill="#1C305C"></path><path d="M102.524 28.632V29.9112H103.785V30.5057H102.524V31.6138H104.27V32.2083H101.955V28.0422H104.27V28.632H102.524Z" fill="#1C305C"></path><path d="M107.637 32.2082L106.989 30.9052H106.376V32.2082H105.79V28.066C106.191 28.0374 106.54 28.0232 106.941 28.0137C107.527 28.0137 108.246 28.4084 108.246 29.4689C108.246 30.0919 107.968 30.5342 107.589 30.7577L108.312 32.2082H107.637ZM106.376 30.3345H106.928C107.293 30.3345 107.659 30.0539 107.659 29.488C107.659 28.9173 107.355 28.6414 106.901 28.6414C106.716 28.6509 106.562 28.6509 106.376 28.6652V30.3345Z" fill="#1C305C"></path><path d="M109.631 31.1429L110.195 30.9812C110.235 31.3141 110.486 31.6042 110.852 31.6042C111.24 31.6042 111.465 31.3569 111.461 31.024C111.452 30.1823 109.666 30.4153 109.666 29.1265C109.666 28.494 110.191 28.0042 110.852 28.0042C111.491 28.0042 112.003 28.4655 112.078 29.0504L111.54 29.1978C111.469 28.8174 111.183 28.6272 110.883 28.6272C110.513 28.6272 110.288 28.8935 110.31 29.155C110.349 29.935 112.073 29.6829 112.073 31.0526C112.073 31.6993 111.632 32.2415 110.865 32.2415C110.182 32.2463 109.706 31.7374 109.631 31.1429Z" fill="#1C305C"></path><path d="M118.435 29.4927C118.435 30.363 117.857 30.9052 117.209 30.9147H116.57V32.2082H115.983V28.066C116.385 28.0374 116.733 28.0232 117.134 28.0137C117.734 28.0137 118.435 28.3989 118.435 29.4927ZM117.116 30.3392C117.482 30.3392 117.848 30.0444 117.848 29.507C117.848 28.9125 117.544 28.6367 117.09 28.6367C116.905 28.6367 116.751 28.6462 116.565 28.6509V30.3392H117.116Z" fill="#1C305C"></path><path d="M120.414 28.632V29.9112H121.675V30.5057H120.414V31.6138H122.16V32.2083H119.846V28.0422H122.16V28.632H120.414Z" fill="#1C305C"></path><path d="M123.509 30.1918V30.0586C123.509 28.689 124.28 28.0042 125.109 28.0042C125.938 28.0042 126.714 28.689 126.714 30.0586V30.1918C126.714 31.5615 125.934 32.2463 125.109 32.2463C124.28 32.2463 123.509 31.5615 123.509 30.1918ZM126.136 30.1918V30.0586C126.136 28.9933 125.621 28.5939 125.109 28.5939C124.598 28.5939 124.091 28.9933 124.091 30.0586V30.1918C124.091 31.2476 124.602 31.6566 125.109 31.6566C125.621 31.6566 126.136 31.2476 126.136 30.1918Z" fill="#1C305C"></path><path d="M130.735 29.4927C130.735 30.363 130.158 30.9052 129.51 30.9147H128.871V32.2082H128.284V28.066C128.685 28.0374 129.034 28.0232 129.435 28.0137C130.034 28.0137 130.735 28.3989 130.735 29.4927ZM129.417 30.3392C129.783 30.3392 130.149 30.0444 130.149 29.507C130.149 28.9125 129.845 28.6367 129.391 28.6367C129.206 28.6367 129.051 28.6462 128.866 28.6509V30.3392H129.417Z" fill="#1C305C"></path><path d="M134.033 31.6137V32.2081H132.142V28.0564L132.728 28.0278V31.6137H134.033Z" fill="#1C305C"></path><path d="M136.039 28.632V29.9112H137.3V30.5057H136.039V31.6138H137.785V32.2083H135.471V28.0422H137.785V28.632H136.039Z" fill="#1C305C"></path><path d="M3.31144 14.7881C4.39601 12.9999 5.25573 12.5148 7.98479 12.453C8.04652 12.453 8.21405 12.4625 8.38159 12.472V10.7219H6.15072C5.77597 10.7029 5.70543 10.4651 5.73188 10.2844C5.75393 10.156 5.86415 9.95148 5.94792 9.82307C7.5395 6.77464 9.32949 3.36952 9.35153 3.32196C9.46175 3.11271 9.79241 3.06991 9.89382 3.28867C9.97318 3.45037 9.94672 4.15897 9.94672 4.15897V16.2861H13.5487V0.359131H8.84892L0.176758 16.2861H2.4429C2.74711 15.7582 3.28939 14.8309 3.31144 14.7881Z" fill="#C2D500"></path><path d="M0 22.9015L15.1223 31.8803V29.5167C14.6109 29.1838 13.8481 28.6987 13.804 28.6749C12.0934 27.5431 11.6261 26.6442 11.5732 23.8003C11.5732 23.7432 11.582 23.591 11.5864 23.4341H9.91546V25.7169C9.89782 26.1068 9.66856 26.1782 9.49662 26.1496C9.37758 26.1306 9.18359 26.0165 9.05573 25.9261C6.13709 24.2664 2.88337 22.3973 2.83488 22.3736C2.63207 22.2594 2.5968 21.917 2.79961 21.8076C2.95392 21.7268 3.63288 21.7506 3.63288 21.7506H15.1223V17.9888H0V22.9015Z" fill="#C2D500"></path><path d="M15.1221 0.596924V2.96053C15.6291 3.28392 16.4756 3.81657 16.5197 3.8451C18.2303 4.97697 18.6932 5.87581 18.7505 8.71975C18.7505 8.77682 18.7461 8.92424 18.7329 9.08118H20.4083V6.80318C20.4259 6.41321 20.6552 6.34187 20.8271 6.37041C20.9505 6.38943 21.1401 6.50357 21.268 6.59393C24.1866 8.25368 27.4403 10.1227 27.4888 10.1465C27.6872 10.2606 27.7269 10.6078 27.5241 10.7124C27.3654 10.798 26.6908 10.7695 26.6908 10.7695H15.1221V14.5313H30.3237V9.61858L15.1221 0.596924Z" fill="#C2D500"></path><path d="M26.9336 17.689C25.8534 19.4772 24.9893 19.9623 22.2646 20.0241C22.2073 20.0241 22.0486 20.0146 21.8899 20.0051V21.7552H24.0987C24.4691 21.7742 24.5396 22.012 24.5131 22.1927C24.4911 22.3211 24.3853 22.5209 24.3015 22.654C22.7055 25.7025 20.9199 29.1028 20.8935 29.1504C20.7877 29.3644 20.457 29.4024 20.3512 29.1884C20.2718 29.0267 20.3027 28.3181 20.3027 28.3181V16.2385H16.6963V32.1132H21.4049L30.0462 16.2385H27.7845C27.4715 16.7664 26.96 17.6415 26.9336 17.689Z" fill="#C2D500"></path></svg>